<?xml version="1.0" encoding="UTF-8"?>
<!-- Do not edit this file with editors other than draw.io -->
<!DOCTYPE svg PUBLIC "-//W3C//DTD SVG 1.1//EN" "http://www.w3.org/Graphics/SVG/1.1/DTD/svg11.dtd">
<svg xmlns="http://www.w3.org/2000/svg" style="background: transparent; background-color: transparent; color-scheme: light dark;" xmlns:xlink="http://www.w3.org/1999/xlink" version="1.1" width="1113px" height="139px" viewBox="0 0 1113 139" content="&lt;mxfile host=&quot;Electron&quot; agent=&quot;Mozilla/5.0 (Windows NT 10.0; Win64; x64) AppleWebKit/537.36 (KHTML, like Gecko) draw.io/29.0.3 Chrome/140.0.7339.249 Electron/38.7.0 Safari/537.36&quot; version=&quot;29.0.3&quot;&gt;&#10;  &lt;diagram name=&quot;Page-1&quot; id=&quot;bRWnCtA-CobYZjF2Vxmi&quot;&gt;&#10;    &lt;mxGraphModel dx=&quot;872&quot; dy=&quot;537&quot; grid=&quot;0&quot; gridSize=&quot;10&quot; guides=&quot;1&quot; tooltips=&quot;1&quot; connect=&quot;1&quot; arrows=&quot;1&quot; fold=&quot;1&quot; page=&quot;0&quot; pageScale=&quot;1&quot; pageWidth=&quot;827&quot; pageHeight=&quot;1169&quot; math=&quot;0&quot; shadow=&quot;0&quot;&gt;&#10;      &lt;root&gt;&#10;        &lt;mxCell id=&quot;0&quot; /&gt;&#10;        &lt;mxCell id=&quot;1&quot; parent=&quot;0&quot; /&gt;&#10;        &lt;mxCell id=&quot;G16TVG7ClG67mr7e63Cx-5&quot; style=&quot;edgeStyle=orthogonalEdgeStyle;rounded=0;orthogonalLoop=1;jettySize=auto;html=1;flowAnimation=1;&quot; parent=&quot;1&quot; source=&quot;G16TVG7ClG67mr7e63Cx-1&quot; edge=&quot;1&quot;&gt;&#10;          &lt;mxGeometry relative=&quot;1&quot; as=&quot;geometry&quot;&gt;&#10;            &lt;mxPoint x=&quot;464&quot; y=&quot;296&quot; as=&quot;targetPoint&quot; /&gt;&#10;          &lt;/mxGeometry&gt;&#10;        &lt;/mxCell&gt;&#10;        &lt;mxCell id=&quot;G16TVG7ClG67mr7e63Cx-1&quot; value=&quot;&quot; style=&quot;sketch=0;points=[[0,0,0],[0.25,0,0],[0.5,0,0],[0.75,0,0],[1,0,0],[0,1,0],[0.25,1,0],[0.5,1,0],[0.75,1,0],[1,1,0],[0,0.25,0],[0,0.5,0],[0,0.75,0],[1,0.25,0],[1,0.5,0],[1,0.75,0]];outlineConnect=0;fontColor=#232F3E;fillColor=#7AA116;strokeColor=#ffffff;dashed=0;verticalLabelPosition=bottom;verticalAlign=top;align=center;html=1;fontSize=12;fontStyle=0;aspect=fixed;shape=mxgraph.aws4.resourceIcon;resIcon=mxgraph.aws4.s3;&quot; parent=&quot;1&quot; vertex=&quot;1&quot;&gt;&#10;          &lt;mxGeometry x=&quot;158&quot; y=&quot;257&quot; width=&quot;78&quot; height=&quot;78&quot; as=&quot;geometry&quot; /&gt;&#10;        &lt;/mxCell&gt;&#10;        &lt;mxCell id=&quot;G16TVG7ClG67mr7e63Cx-6&quot; style=&quot;edgeStyle=orthogonalEdgeStyle;rounded=0;orthogonalLoop=1;jettySize=auto;html=1;flowAnimation=1;&quot; parent=&quot;1&quot; source=&quot;G16TVG7ClG67mr7e63Cx-2&quot; edge=&quot;1&quot;&gt;&#10;          &lt;mxGeometry relative=&quot;1&quot; as=&quot;geometry&quot;&gt;&#10;            &lt;mxPoint x=&quot;746&quot; y=&quot;299&quot; as=&quot;targetPoint&quot; /&gt;&#10;          &lt;/mxGeometry&gt;&#10;        &lt;/mxCell&gt;&#10;        &lt;mxCell id=&quot;G16TVG7ClG67mr7e63Cx-2&quot; value=&quot;&quot; style=&quot;outlineConnect=0;dashed=0;verticalLabelPosition=bottom;verticalAlign=top;align=center;html=1;shape=mxgraph.aws3.lambda_function;fillColor=#F58534;gradientColor=none;&quot; parent=&quot;1&quot; vertex=&quot;1&quot;&gt;&#10;          &lt;mxGeometry x=&quot;470&quot; y=&quot;263&quot; width=&quot;69&quot; height=&quot;72&quot; as=&quot;geometry&quot; /&gt;&#10;        &lt;/mxCell&gt;&#10;        &lt;mxCell id=&quot;G16TVG7ClG67mr7e63Cx-7&quot; style=&quot;edgeStyle=orthogonalEdgeStyle;rounded=0;orthogonalLoop=1;jettySize=auto;html=1;flowAnimation=1;&quot; parent=&quot;1&quot; source=&quot;G16TVG7ClG67mr7e63Cx-3&quot; edge=&quot;1&quot;&gt;&#10;          &lt;mxGeometry relative=&quot;1&quot; as=&quot;geometry&quot;&gt;&#10;            &lt;mxPoint x=&quot;1112&quot; y=&quot;307&quot; as=&quot;targetPoint&quot; /&gt;&#10;          &lt;/mxGeometry&gt;&#10;        &lt;/mxCell&gt;&#10;        &lt;mxCell id=&quot;G16TVG7ClG67mr7e63Cx-3&quot; value=&quot;&quot; style=&quot;sketch=0;points=[[0,0,0],[0.25,0,0],[0.5,0,0],[0.75,0,0],[1,0,0],[0,1,0],[0.25,1,0],[0.5,1,0],[0.75,1,0],[1,1,0],[0,0.25,0],[0,0.5,0],[0,0.75,0],[1,0.25,0],[1,0.5,0],[1,0.75,0]];outlineConnect=0;fontColor=#232F3E;fillColor=#8C4FFF;strokeColor=#ffffff;dashed=0;verticalLabelPosition=bottom;verticalAlign=top;align=center;html=1;fontSize=12;fontStyle=0;aspect=fixed;shape=mxgraph.aws4.resourceIcon;resIcon=mxgraph.aws4.glue;&quot; parent=&quot;1&quot; vertex=&quot;1&quot;&gt;&#10;          &lt;mxGeometry x=&quot;756&quot; y=&quot;268&quot; width=&quot;78&quot; height=&quot;78&quot; as=&quot;geometry&quot; /&gt;&#10;        &lt;/mxCell&gt;&#10;        &lt;mxCell id=&quot;G16TVG7ClG67mr7e63Cx-4&quot; value=&quot;&quot; style=&quot;sketch=0;points=[[0,0,0],[0.25,0,0],[0.5,0,0],[0.75,0,0],[1,0,0],[0,1,0],[0.25,1,0],[0.5,1,0],[0.75,1,0],[1,1,0],[0,0.25,0],[0,0.5,0],[0,0.75,0],[1,0.25,0],[1,0.5,0],[1,0.75,0]];outlineConnect=0;fontColor=#232F3E;fillColor=#7AA116;strokeColor=#ffffff;dashed=0;verticalLabelPosition=bottom;verticalAlign=top;align=center;html=1;fontSize=12;fontStyle=0;aspect=fixed;shape=mxgraph.aws4.resourceIcon;resIcon=mxgraph.aws4.s3;&quot; parent=&quot;1&quot; vertex=&quot;1&quot;&gt;&#10;          &lt;mxGeometry x=&quot;1110&quot; y=&quot;271&quot; width=&quot;78&quot; height=&quot;78&quot; as=&quot;geometry&quot; /&gt;&#10;        &lt;/mxCell&gt;&#10;        &lt;mxCell id=&quot;G16TVG7ClG67mr7e63Cx-9&quot; value=&quot;&amp;lt;font face=&amp;quot;Times New Roman&amp;quot;&amp;gt;&amp;lt;b&amp;gt;Event notifications&amp;lt;/b&amp;gt;&amp;lt;/font&amp;gt;&quot; style=&quot;text;html=1;whiteSpace=wrap;strokeColor=none;fillColor=none;align=center;verticalAlign=middle;rounded=0;&quot; parent=&quot;1&quot; vertex=&quot;1&quot;&gt;&#10;          &lt;mxGeometry x=&quot;341&quot; y=&quot;254&quot; width=&quot;111&quot; height=&quot;30&quot; as=&quot;geometry&quot; /&gt;&#10;        &lt;/mxCell&gt;&#10;        &lt;mxCell id=&quot;G16TVG7ClG67mr7e63Cx-10&quot; value=&quot;&amp;lt;font face=&amp;quot;Times New Roman&amp;quot;&amp;gt;&amp;lt;b&amp;gt;StartjobRun&amp;lt;/b&amp;gt;&amp;lt;/font&amp;gt;&quot; style=&quot;text;html=1;whiteSpace=wrap;strokeColor=none;fillColor=none;align=center;verticalAlign=middle;rounded=0;&quot; parent=&quot;1&quot; vertex=&quot;1&quot;&gt;&#10;          &lt;mxGeometry x=&quot;644&quot; y=&quot;254&quot; width=&quot;60&quot; height=&quot;30&quot; as=&quot;geometry&quot; /&gt;&#10;        &lt;/mxCell&gt;&#10;        &lt;mxCell id=&quot;G16TVG7ClG67mr7e63Cx-11&quot; value=&quot;Fichier csv&amp;amp;nbsp;&quot; style=&quot;text;html=1;whiteSpace=wrap;strokeColor=none;fillColor=none;align=center;verticalAlign=middle;rounded=0;&quot; parent=&quot;1&quot; vertex=&quot;1&quot;&gt;&#10;          &lt;mxGeometry x=&quot;116&quot; y=&quot;352&quot; width=&quot;140&quot; height=&quot;30&quot; as=&quot;geometry&quot; /&gt;&#10;        &lt;/mxCell&gt;&#10;        &lt;mxCell id=&quot;G16TVG7ClG67mr7e63Cx-12&quot; value=&quot;Fichier Parquet&quot; style=&quot;text;html=1;whiteSpace=wrap;strokeColor=none;fillColor=none;align=center;verticalAlign=middle;rounded=0;&quot; parent=&quot;1&quot; vertex=&quot;1&quot;&gt;&#10;          &lt;mxGeometry x=&quot;1089&quot; y=&quot;363&quot; width=&quot;140&quot; height=&quot;30&quot; as=&quot;geometry&quot; /&gt;&#10;        &lt;/mxCell&gt;&#10;      &lt;/root&gt;&#10;    &lt;/mxGraphModel&gt;&#10;  &lt;/diagram&gt;&#10;&lt;/mxfile&gt;&#10;"><defs><style>@keyframes ge-flow-animation-Y3FU0NHC7iLJu107bU3J {&#xa;  to {&#xa;    stroke-dashoffset: 0;&#xa;  }&#xa;}</style></defs><g><g data-cell-id="0"><g data-cell-id="1"><g data-cell-id="G16TVG7ClG67mr7e63Cx-5"><g transform="translate(0.5,0.5)"><path d="M 120 42 L 341.63 42" fill="none" stroke="#000000" stroke-miterlimit="10" pointer-events="stroke" stroke-dasharray="8" style="stroke: light-dark(rgb(0, 0, 0), rgb(255, 255, 255)); animation: 500ms linear 0s infinite normal none running ge-flow-animation-Y3FU0NHC7iLJu107bU3J; stroke-dashoffset: 16;"/><path d="M 346.88 42 L 339.88 45.5 L 341.63 42 L 339.88 38.5 Z" fill="#000000" stroke="#000000" stroke-miterlimit="10" pointer-events="all" style="fill: light-dark(rgb(0, 0, 0), rgb(255, 255, 255)); stroke: light-dark(rgb(0, 0, 0), rgb(255, 255, 255));"/></g></g><g data-cell-id="G16TVG7ClG67mr7e63Cx-1"><g transform="translate(0.5,0.5)"><path d="M 42 3 L 120 3 L 120 81 L 42 81 Z" fill="#7aa116" stroke="none" pointer-events="all" style="fill: rgb(122, 161, 22);"/><path d="M 104.28 45.22 L 104.71 42.21 C 108.66 44.57 108.71 45.55 108.71 45.58 C 108.7 45.58 108.03 46.14 104.28 45.22 Z M 102.12 44.62 C 95.3 42.56 85.8 38.2 81.96 36.39 C 81.96 36.37 81.96 36.36 81.96 36.34 C 81.96 34.86 80.76 33.66 79.28 33.66 C 77.81 33.66 76.61 34.86 76.61 36.34 C 76.61 37.82 77.81 39.02 79.28 39.02 C 79.93 39.02 80.52 38.78 80.98 38.39 C 85.51 40.53 94.93 44.82 101.8 46.85 L 99.08 66.03 C 99.07 66.08 99.07 66.13 99.07 66.18 C 99.07 67.87 91.6 70.97 79.39 70.97 C 67.05 70.97 59.49 67.87 59.49 66.18 C 59.49 66.13 59.49 66.08 59.48 66.03 L 53.81 24.57 C 58.72 27.95 69.29 29.74 79.39 29.74 C 89.48 29.74 100.03 27.96 104.96 24.59 Z M 53.21 20.25 C 53.29 18.78 61.71 13.03 79.39 13.03 C 97.07 13.03 105.5 18.78 105.58 20.25 L 105.58 20.75 C 104.61 24.04 93.69 27.51 79.39 27.51 C 65.07 27.51 54.15 24.02 53.21 20.73 Z M 107.81 20.27 C 107.81 16.41 96.74 10.8 79.39 10.8 C 62.05 10.8 50.98 16.41 50.98 20.27 L 51.08 21.11 L 57.27 66.27 C 57.41 71.32 70.88 73.2 79.39 73.2 C 89.94 73.2 101.15 70.77 101.3 66.27 L 103.97 47.44 C 105.45 47.8 106.68 47.98 107.66 47.98 C 108.98 47.98 109.87 47.66 110.41 47.01 C 110.85 46.48 111.02 45.85 110.89 45.16 C 110.61 43.62 108.77 41.96 105.05 39.83 L 107.69 21.16 Z" fill="#ffffff" stroke="none" pointer-events="all" style="fill: rgb(255, 255, 255);"/></g></g><g data-cell-id="G16TVG7ClG67mr7e63Cx-6"><g transform="translate(0.5,0.5)"><path d="M 423 45 L 623.63 45" fill="none" stroke="#000000" stroke-miterlimit="10" pointer-events="stroke" stroke-dasharray="8" style="stroke: light-dark(rgb(0, 0, 0), rgb(255, 255, 255)); animation: 500ms linear 0s infinite normal none running ge-flow-animation-Y3FU0NHC7iLJu107bU3J; stroke-dashoffset: 16;"/><path d="M 628.88 45 L 621.88 48.5 L 623.63 45 L 621.88 41.5 Z" fill="#000000" stroke="#000000" stroke-miterlimit="10" pointer-events="all" style="fill: light-dark(rgb(0, 0, 0), rgb(255, 255, 255)); stroke: light-dark(rgb(0, 0, 0), rgb(255, 255, 255));"/></g></g><g data-cell-id="G16TVG7ClG67mr7e63Cx-2"><g transform="translate(0.5,0.5)"><path d="M 388.46 81 C 368.75 81 354 64.73 354 46.98 L 354 42.95 C 354 25.66 368.1 9 388.72 9 C 407.45 9 423 24.51 423 43.16 L 422.98 46.69 C 422.98 64.28 408.63 81 388.46 81 Z" fill="#f58534" stroke="none" pointer-events="all" style="fill: rgb(245, 133, 52);"/><path d="M 354 42.95 C 354 63.02 369.58 78.14 388.28 78.14 C 407.16 78.14 423 63.19 423 43.16 L 422.98 46.69 C 422.98 64.29 408.63 81 388.46 81 C 368.66 81 354 64.67 354 46.98 Z" fill-opacity="0.3" fill="#000000" stroke="none" pointer-events="all" style="fill: rgb(0, 0, 0);"/><rect x="354" y="9" width="0" height="0" fill="none" stroke="#000000" pointer-events="all" style="stroke: light-dark(rgb(0, 0, 0), rgb(255, 255, 255));"/><path d="M 367.59 64.59 L 385.44 32.75 L 383.31 27.15 L 377.14 27.15 L 377.14 19.62 L 388.48 19.62 L 402.28 55.82 L 408.26 53.52 L 410.94 60.56 L 397.94 65.53 L 388.93 41.89 L 376.22 64.59 Z" fill="#ffffff" stroke="none" pointer-events="all" style="fill: rgb(255, 255, 255);"/></g></g><g data-cell-id="G16TVG7ClG67mr7e63Cx-7"><g transform="translate(0.5,0.5)"><path d="M 718 53 L 989.63 53" fill="none" stroke="#000000" stroke-miterlimit="10" pointer-events="stroke" stroke-dasharray="8" style="stroke: light-dark(rgb(0, 0, 0), rgb(255, 255, 255)); animation: 500ms linear 0s infinite normal none running ge-flow-animation-Y3FU0NHC7iLJu107bU3J; stroke-dashoffset: 16;"/><path d="M 994.88 53 L 987.88 56.5 L 989.63 53 L 987.88 49.5 Z" fill="#000000" stroke="#000000" stroke-miterlimit="10" pointer-events="all" style="fill: light-dark(rgb(0, 0, 0), rgb(255, 255, 255)); stroke: light-dark(rgb(0, 0, 0), rgb(255, 255, 255));"/></g></g><g data-cell-id="G16TVG7ClG67mr7e63Cx-3"><g transform="translate(0.5,0.5)"><path d="M 640 14 L 718 14 L 718 92 L 640 92 Z" fill="#8c4fff" stroke="none" pointer-events="all" style="fill: rgb(140, 79, 255);"/><path d="M 670.91 33.36 L 673.22 33.36 L 673.22 31.04 L 670.91 31.04 Z M 668.6 34.51 L 668.6 29.89 C 668.6 29.25 669.12 28.73 669.76 28.73 L 674.38 28.73 C 675.02 28.73 675.53 29.25 675.53 29.89 L 675.53 34.51 C 675.53 35.15 675.02 35.67 674.38 35.67 L 669.76 35.67 C 669.12 35.67 668.6 35.15 668.6 34.51 Z M 680.16 26.42 L 682.47 26.42 L 682.47 24.11 L 680.16 24.11 Z M 677.84 27.58 L 677.84 22.96 C 677.84 22.32 678.36 21.8 679 21.8 L 683.62 21.8 C 684.26 21.8 684.78 22.32 684.78 22.96 L 684.78 27.58 C 684.78 28.22 684.26 28.73 683.62 28.73 L 679 28.73 C 678.36 28.73 677.84 28.22 677.84 27.58 Z M 682.47 37.98 L 684.78 37.98 L 684.78 35.67 L 682.47 35.67 Z M 681.31 33.36 L 685.93 33.36 C 686.57 33.36 687.09 33.87 687.09 34.51 L 687.09 39.13 C 687.09 39.77 686.57 40.29 685.93 40.29 L 681.31 40.29 C 680.67 40.29 680.16 39.77 680.16 39.13 L 680.16 34.51 C 680.16 33.87 680.67 33.36 681.31 33.36 Z M 679 45.49 C 676.97 45.49 669.59 45.4 664.79 44.22 L 676.51 62.78 C 676.63 62.97 676.69 63.18 676.69 63.4 L 676.69 66.03 C 678.31 66.5 679.81 66.51 681.31 66.05 L 681.31 63.4 C 681.31 63.18 681.37 62.97 681.49 62.78 L 693.21 44.22 C 688.41 45.4 681.03 45.49 679 45.49 Z M 660.8 42.24 C 660.62 41.98 660.51 41.69 660.51 41.37 C 660.51 38.08 671.35 37.48 677.82 37.41 L 677.84 39.72 C 669.9 39.8 665.05 40.71 663.34 41.38 C 665.15 42.14 670.5 43.18 679 43.18 C 687.48 43.18 692.82 42.15 694.65 41.39 C 693.9 41.09 692.35 40.64 689.26 40.27 L 689.54 37.97 C 696.54 38.83 697.49 40.17 697.49 41.37 C 697.49 41.69 697.38 41.98 697.2 42.24 L 683.62 63.74 L 683.62 66.87 C 683.62 67.34 683.34 67.76 682.9 67.94 C 681.64 68.45 680.37 68.7 679.08 68.7 C 677.79 68.7 676.49 68.45 675.13 67.95 C 674.68 67.78 674.38 67.35 674.38 66.87 L 674.38 63.74 Z M 687 75.67 C 687.18 76.1 687.08 76.6 686.75 76.93 L 679.82 83.86 C 679.59 84.09 679.3 84.2 679 84.2 C 678.7 84.2 678.41 84.09 678.18 83.86 L 671.25 76.93 C 670.92 76.6 670.82 76.1 671 75.67 C 671.18 75.24 671.6 74.96 672.07 74.96 L 675.53 74.96 L 675.53 71.49 L 677.84 71.49 L 677.84 76.11 C 677.84 76.75 677.33 77.27 676.69 77.27 L 674.86 77.27 L 679 81.41 L 683.14 77.27 L 681.31 77.27 C 680.67 77.27 680.16 76.75 680.16 76.11 L 680.16 71.49 L 682.47 71.49 L 682.47 74.96 L 685.93 74.96 C 686.4 74.96 686.82 75.24 687 75.67 Z" fill="#ffffff" stroke="none" pointer-events="all" style="fill: rgb(255, 255, 255);"/></g></g><g data-cell-id="G16TVG7ClG67mr7e63Cx-4"><g transform="translate(0.5,0.5)"><path d="M 994 17 L 1072 17 L 1072 95 L 994 95 Z" fill="#7aa116" stroke="none" pointer-events="all" style="fill: rgb(122, 161, 22);"/><path d="M 1056.28 59.22 L 1056.71 56.21 C 1060.66 58.57 1060.71 59.55 1060.71 59.58 C 1060.7 59.58 1060.03 60.14 1056.28 59.22 Z M 1054.12 58.62 C 1047.3 56.56 1037.8 52.2 1033.96 50.39 C 1033.96 50.37 1033.96 50.36 1033.96 50.34 C 1033.96 48.86 1032.76 47.66 1031.28 47.66 C 1029.81 47.66 1028.61 48.86 1028.61 50.34 C 1028.61 51.82 1029.81 53.02 1031.28 53.02 C 1031.93 53.02 1032.52 52.78 1032.98 52.39 C 1037.51 54.53 1046.93 58.82 1053.8 60.85 L 1051.08 80.03 C 1051.07 80.08 1051.07 80.13 1051.07 80.18 C 1051.07 81.87 1043.6 84.97 1031.39 84.97 C 1019.05 84.97 1011.49 81.87 1011.49 80.18 C 1011.49 80.13 1011.49 80.08 1011.48 80.03 L 1005.81 38.57 C 1010.72 41.95 1021.29 43.74 1031.39 43.74 C 1041.48 43.74 1052.03 41.96 1056.96 38.59 Z M 1005.21 34.25 C 1005.29 32.78 1013.71 27.03 1031.39 27.03 C 1049.07 27.03 1057.5 32.78 1057.58 34.25 L 1057.58 34.75 C 1056.61 38.04 1045.69 41.51 1031.39 41.51 C 1017.07 41.51 1006.15 38.02 1005.21 34.73 Z M 1059.81 34.27 C 1059.81 30.41 1048.74 24.8 1031.39 24.8 C 1014.05 24.8 1002.98 30.41 1002.98 34.27 L 1003.08 35.11 L 1009.27 80.27 C 1009.41 85.32 1022.88 87.2 1031.39 87.2 C 1041.94 87.2 1053.15 84.77 1053.3 80.27 L 1055.97 61.44 C 1057.45 61.8 1058.68 61.98 1059.66 61.98 C 1060.98 61.98 1061.87 61.66 1062.41 61.01 C 1062.85 60.48 1063.02 59.85 1062.89 59.16 C 1062.61 57.62 1060.77 55.96 1057.05 53.83 L 1059.69 35.16 Z" fill="#ffffff" stroke="none" pointer-events="all" style="fill: rgb(255, 255, 255);"/></g></g><g data-cell-id="G16TVG7ClG67mr7e63Cx-9"><g transform="translate(0.5,0.5)"><rect x="225" y="0" width="111" height="30" fill="none" stroke="none" pointer-events="all"/></g><g><g><switch><foreignObject style="overflow: visible; text-align: left;" pointer-events="none" width="100%" height="100%" requiredFeatures="http://www.w3.org/TR/SVG11/feature#Extensibility"><div xmlns="http://www.w3.org/1999/xhtml" style="display: flex; align-items: unsafe center; justify-content: unsafe center; width: 109px; height: 1px; padding-top: 15px; margin-left: 226px;"><div style="box-sizing: border-box; font-size: 0; text-align: center; color: #000000; "><div style="display: inline-block; font-size: 12px; font-family: Helvetica; color: light-dark(#000000, #ffffff); line-height: 1.2; pointer-events: all; white-space: normal; word-wrap: normal; "><font face="Times New Roman"><b>Event notifications</b></font></div></div></div></foreignObject><text x="281" y="19" fill="light-dark(#000000, #ffffff)" font-family="Helvetica" font-size="12px" text-anchor="middle">Event notifications</text></switch></g></g></g><g data-cell-id="G16TVG7ClG67mr7e63Cx-10"><g transform="translate(0.5,0.5)"><rect x="528" y="0" width="60" height="30" fill="none" stroke="none" pointer-events="all"/></g><g><g><switch><foreignObject style="overflow: visible; text-align: left;" pointer-events="none" width="100%" height="100%" requiredFeatures="http://www.w3.org/TR/SVG11/feature#Extensibility"><div xmlns="http://www.w3.org/1999/xhtml" style="display: flex; align-items: unsafe center; justify-content: unsafe center; width: 58px; height: 1px; padding-top: 15px; margin-left: 529px;"><div style="box-sizing: border-box; font-size: 0; text-align: center; color: #000000; "><div style="display: inline-block; font-size: 12px; font-family: Helvetica; color: light-dark(#000000, #ffffff); line-height: 1.2; pointer-events: all; white-space: normal; word-wrap: normal; "><font face="Times New Roman"><b>StartjobRun</b></font></div></div></div></foreignObject><text x="558" y="19" fill="light-dark(#000000, #ffffff)" font-family="Helvetica" font-size="12px" text-anchor="middle">StartjobRun</text></switch></g></g></g><g data-cell-id="G16TVG7ClG67mr7e63Cx-11"><g transform="translate(0.5,0.5)"><rect x="0" y="98" width="140" height="30" fill="none" stroke="none" pointer-events="all"/></g><g><g><switch><foreignObject style="overflow: visible; text-align: left;" pointer-events="none" width="100%" height="100%" requiredFeatures="http://www.w3.org/TR/SVG11/feature#Extensibility"><div xmlns="http://www.w3.org/1999/xhtml" style="display: flex; align-items: unsafe center; justify-content: unsafe center; width: 138px; height: 1px; padding-top: 113px; margin-left: 1px;"><div style="box-sizing: border-box; font-size: 0; text-align: center; color: #000000; "><div style="display: inline-block; font-size: 12px; font-family: Helvetica; color: light-dark(#000000, #ffffff); line-height: 1.2; pointer-events: all; white-space: normal; word-wrap: normal; ">Fichier csv </div></div></div></foreignObject><text x="70" y="117" fill="light-dark(#000000, #ffffff)" font-family="Helvetica" font-size="12px" text-anchor="middle">Fichier csv </text></switch></g></g></g><g data-cell-id="G16TVG7ClG67mr7e63Cx-12"><g transform="translate(0.5,0.5)"><rect x="973" y="109" width="140" height="30" fill="none" stroke="none" pointer-events="all"/></g><g><g><switch><foreignObject style="overflow: visible; text-align: left;" pointer-events="none" width="100%" height="100%" requiredFeatures="http://www.w3.org/TR/SVG11/feature#Extensibility"><div xmlns="http://www.w3.org/1999/xhtml" style="display: flex; align-items: unsafe center; justify-content: unsafe center; width: 138px; height: 1px; padding-top: 124px; margin-left: 974px;"><div style="box-sizing: border-box; font-size: 0; text-align: center; color: #000000; "><div style="display: inline-block; font-size: 12px; font-family: Helvetica; color: light-dark(#000000, #ffffff); line-height: 1.2; pointer-events: all; white-space: normal; word-wrap: normal; ">Fichier Parquet</div></div></div></foreignObject><text x="1043" y="128" fill="light-dark(#000000, #ffffff)" font-family="Helvetica" font-size="12px" text-anchor="middle">Fichier Parquet</text></switch></g></g></g></g></g></g><switch><g requiredFeatures="http://www.w3.org/TR/SVG11/feature#Extensibility"/><a transform="translate(0,-5)" xlink:href="https://www.drawio.com/doc/faq/svg-export-text-problems" target="_blank"><text text-anchor="middle" font-size="10px" x="50%" y="100%">Text is not SVG - cannot display</text></a></switch></svg>